<?xml version="1.0" encoding="UTF-8"?>
<!DOCTYPE svg PUBLIC "-//W3C//DTD SVG 1.1//EN" "http://www.w3.org/Graphics/SVG/1.1/DTD/svg11.dtd">
<!-- Creator: CorelDRAW 2020 (64-Bit) -->
<svg xmlns="http://www.w3.org/2000/svg" xml:space="preserve" width="3.683mm" height="4.191mm" version="1.1" style="shape-rendering:geometricPrecision; text-rendering:geometricPrecision; image-rendering:optimizeQuality; fill-rule:evenodd; clip-rule:evenodd"
viewBox="0 0 368.3 419.1"
 xmlns:xlink="http://www.w3.org/1999/xlink"
 xmlns:xodm="http://www.corel.com/coreldraw/odm/2003">
 <defs>
  <style type="text/css">
   <![CDATA[
    .fil0 {fill:#FEFEFE;fill-rule:nonzero}
   ]]>
  </style>
 </defs>
 <g id="Слой_x0020_1">
  <metadata id="CorelCorpID_0Corel-Layer"/>
  <path class="fil0" d="M75.78 32.73c28.41,-12.91 66.75,-20.56 108.37,-20.56 41.62,0 79.96,7.65 108.37,20.56 27.23,12.38 50.38,32.17 50.38,58.82 0,26.65 -23.15,46.43 -50.38,58.82 -28.41,12.91 -66.75,20.55 -108.37,20.55 -41.62,0 -79.96,-7.65 -108.37,-20.56 -27.23,-12.38 -50.38,-32.17 -50.38,-58.81 0,-26.64 23.15,-46.43 50.38,-58.82z"/>
  <path class="fil0" d="M25.4 135.49l0 22.2c0,26.64 23.15,46.43 50.38,58.82 28.41,12.88 66.75,20.56 108.37,20.56 41.62,0 79.96,-7.65 108.37,-20.56 27.23,-12.38 50.38,-32.17 50.38,-58.82l0 -22.2c-12.09,11.43 -26.56,19.87 -39.42,25.72 -32.6,14.82 -74.83,22.94 -119.33,22.94 -44.5,0 -86.73,-8.12 -119.33,-22.94 -12.86,-5.82 -27.33,-14.29 -39.42,-25.72z"/>
  <path class="fil0" d="M25.4 228.1l0 22.2c0,26.64 23.15,46.43 50.38,58.82 28.41,12.91 66.75,20.55 108.37,20.55 41.62,0 79.96,-7.65 108.37,-20.56 27.23,-12.38 50.38,-32.17 50.38,-58.81l0 -22.2c-12.09,11.43 -26.56,19.87 -39.42,25.72 -32.6,14.82 -74.82,22.94 -119.33,22.94 -44.51,0 -86.73,-8.12 -119.33,-22.94 -12.86,-5.82 -27.33,-14.29 -39.42,-25.72z"/>
  <path class="fil0" d="M25.4 307.47l0 22.2c0,26.64 23.15,46.43 50.38,58.82 28.41,12.91 66.75,20.56 108.37,20.56 41.62,0 79.96,-7.65 108.37,-20.56 27.23,-12.38 50.38,-32.17 50.38,-58.82l0 -22.2c-12.09,11.43 -26.56,19.87 -39.42,25.72 -32.6,14.82 -74.82,22.94 -119.33,22.94 -44.51,0 -86.73,-8.12 -119.33,-22.94 -12.86,-5.82 -27.33,-14.29 -39.42,-25.72z"/>
 </g>
</svg>
