<?xml version="1.0" encoding="UTF-8"?>
<!DOCTYPE svg PUBLIC "-//W3C//DTD SVG 1.1//EN" "http://www.w3.org/Graphics/SVG/1.1/DTD/svg11.dtd">
<!-- Creator: CorelDRAW X6 -->
<svg xmlns="http://www.w3.org/2000/svg" xml:space="preserve" width="4.5mm" height="4.5mm" version="1.1" style="shape-rendering:geometricPrecision; text-rendering:geometricPrecision; image-rendering:optimizeQuality; fill-rule:evenodd; clip-rule:evenodd"
viewBox="0 0 450 450"
 xmlns:xlink="http://www.w3.org/1999/xlink">
 <defs>
  <style type="text/css">
   <![CDATA[
    .fil0 {fill:#FEFEFE}
   ]]>
  </style>
 </defs>
 <g id="Слой_x0020_1">
  <metadata id="CorelCorpID_0Corel-Layer"/>
  <path class="fil0" d="M27 275c7,0 13,6 13,13l0 66c0,15 12,26 26,26l317 0c15,0 26,-12 26,-26l0 -66c0,-7 6,-13 13,-13 7,0 13,6 13,13l0 66c0,29 -24,53 -53,53l-318 0c-29,0 -53,-24 -53,-53l0 -66c0,-7 6,-13 13,-13l0 0z"/>
  <path class="fil0" d="M216 44c2,-2 6,-4 9,-4 4,0 7,1 9,4l79 79c2,2 4,6 4,9 0,7 -6,13 -13,13 -4,0 -7,-1 -9,-4l-57 -57 0 233c0,7 -6,13 -13,13 -7,0 -13,-6 -13,-13l0 -233 -57 57c-2,2 -6,4 -9,4 -7,0 -13,-6 -13,-13 0,-4 1,-7 4,-9l79 -79 0 0z"/>
 </g>
</svg>
